<svg id="visual" viewBox="0 0 960 80" width="960" height="80" xmlns="http://www.w3.org/2000/svg" xmlns:xlink="http://www.w3.org/1999/xlink" version="1.1"><rect x="0" y="0" width="960" height="80" fill="#000000"></rect><path d="M0 38L20 37.3C40 36.7 80 35.3 120 33.3C160 31.3 200 28.7 240 27.8C280 27 320 28 360 30.2C400 32.3 440 35.7 480 36.7C520 37.7 560 36.3 600 35.3C640 34.3 680 33.7 720 30.2C760 26.7 800 20.3 840 21.3C880 22.3 920 30.7 940 34.8L960 39L960 81L940 81C920 81 880 81 840 81C800 81 760 81 720 81C680 81 640 81 600 81C560 81 520 81 480 81C440 81 400 81 360 81C320 81 280 81 240 81C200 81 160 81 120 81C80 81 40 81 20 81L0 81Z" fill="#000000"></path><path d="M0 27L20 29.2C40 31.3 80 35.7 120 35.3C160 35 200 30 240 31.2C280 32.3 320 39.7 360 41.2C400 42.7 440 38.3 480 35.3C520 32.3 560 30.7 600 29.3C640 28 680 27 720 28.7C760 30.3 800 34.7 840 35.3C880 36 920 33 940 31.5L960 30L960 81L940 81C920 81 880 81 840 81C800 81 760 81 720 81C680 81 640 81 600 81C560 81 520 81 480 81C440 81 400 81 360 81C320 81 280 81 240 81C200 81 160 81 120 81C80 81 40 81 20 81L0 81Z" fill="#320076"></path><path d="M0 49L20 48.7C40 48.3 80 47.7 120 47C160 46.3 200 45.7 240 45.3C280 45 320 45 360 44.3C400 43.7 440 42.3 480 42.8C520 43.3 560 45.7 600 47.2C640 48.7 680 49.3 720 50.3C760 51.3 800 52.7 840 50.8C880 49 920 44 940 41.5L960 39L960 81L940 81C920 81 880 81 840 81C800 81 760 81 720 81C680 81 640 81 600 81C560 81 520 81 480 81C440 81 400 81 360 81C320 81 280 81 240 81C200 81 160 81 120 81C80 81 40 81 20 81L0 81Z" fill="#550096"></path><path d="M0 61L20 60.7C40 60.3 80 59.7 120 58.5C160 57.3 200 55.7 240 54C280 52.3 320 50.7 360 51C400 51.3 440 53.7 480 55.8C520 58 560 60 600 59.8C640 59.7 680 57.3 720 57C760 56.7 800 58.3 840 59C880 59.7 920 59.3 940 59.2L960 59L960 81L940 81C920 81 880 81 840 81C800 81 760 81 720 81C680 81 640 81 600 81C560 81 520 81 480 81C440 81 400 81 360 81C320 81 280 81 240 81C200 81 160 81 120 81C80 81 40 81 20 81L0 81Z" fill="#7420b4"></path><path d="M0 67L20 66.2C40 65.3 80 63.7 120 63.5C160 63.3 200 64.7 240 65.5C280 66.3 320 66.7 360 67.3C400 68 440 69 480 67.7C520 66.3 560 62.7 600 62.5C640 62.3 680 65.7 720 66.8C760 68 800 67 840 67.2C880 67.3 920 68.7 940 69.3L960 70L960 81L940 81C920 81 880 81 840 81C800 81 760 81 720 81C680 81 640 81 600 81C560 81 520 81 480 81C440 81 400 81 360 81C320 81 280 81 240 81C200 81 160 81 120 81C80 81 40 81 20 81L0 81Z" fill="#9439d3"></path></svg>