<svg id="visual" viewBox="0 0 960 80" width="960" height="80" xmlns="http://www.w3.org/2000/svg" xmlns:xlink="http://www.w3.org/1999/xlink" version="1.1"><rect x="0" y="0" width="960" height="80" fill="#000000"></rect><path d="M0 60L20 58.7C40 57.3 80 54.7 120 53.7C160 52.7 200 53.3 240 53.2C280 53 320 52 360 53.2C400 54.3 440 57.7 480 59.2C520 60.7 560 60.3 600 59.8C640 59.3 680 58.7 720 55.8C760 53 800 48 840 49C880 50 920 57 940 60.5L960 64L960 0L940 0C920 0 880 0 840 0C800 0 760 0 720 0C680 0 640 0 600 0C560 0 520 0 480 0C440 0 400 0 360 0C320 0 280 0 240 0C200 0 160 0 120 0C80 0 40 0 20 0L0 0Z" fill="#000000"></path><path d="M0 48L20 47.5C40 47 80 46 120 44.7C160 43.3 200 41.7 240 42.7C280 43.7 320 47.3 360 48.7C400 50 440 49 480 46.5C520 44 560 40 600 37.2C640 34.3 680 32.7 720 34.8C760 37 800 43 840 44.8C880 46.7 920 44.3 940 43.2L960 42L960 0L940 0C920 0 880 0 840 0C800 0 760 0 720 0C680 0 640 0 600 0C560 0 520 0 480 0C440 0 400 0 360 0C320 0 280 0 240 0C200 0 160 0 120 0C80 0 40 0 20 0L0 0Z" fill="#320076"></path><path d="M0 40L20 39C40 38 80 36 120 35.7C160 35.3 200 36.7 240 36.8C280 37 320 36 360 35.5C400 35 440 35 480 33.5C520 32 560 29 600 27.7C640 26.3 680 26.7 720 29C760 31.3 800 35.7 840 38.2C880 40.7 920 41.3 940 41.7L960 42L960 0L940 0C920 0 880 0 840 0C800 0 760 0 720 0C680 0 640 0 600 0C560 0 520 0 480 0C440 0 400 0 360 0C320 0 280 0 240 0C200 0 160 0 120 0C80 0 40 0 20 0L0 0Z" fill="#550096"></path><path d="M0 28L20 25.8C40 23.7 80 19.3 120 19.7C160 20 200 25 240 27.2C280 29.3 320 28.7 360 27.2C400 25.7 440 23.3 480 22.2C520 21 560 21 600 21.8C640 22.7 680 24.3 720 24.7C760 25 800 24 840 23.8C880 23.7 920 24.3 940 24.7L960 25L960 0L940 0C920 0 880 0 840 0C800 0 760 0 720 0C680 0 640 0 600 0C560 0 520 0 480 0C440 0 400 0 360 0C320 0 280 0 240 0C200 0 160 0 120 0C80 0 40 0 20 0L0 0Z" fill="#7420b4"></path><path d="M0 19L20 18.2C40 17.3 80 15.7 120 14C160 12.3 200 10.7 240 11.5C280 12.3 320 15.7 360 17C400 18.3 440 17.7 480 16.2C520 14.7 560 12.3 600 12.7C640 13 680 16 720 16.7C760 17.3 800 15.7 840 14C880 12.3 920 10.7 940 9.8L960 9L960 0L940 0C920 0 880 0 840 0C800 0 760 0 720 0C680 0 640 0 600 0C560 0 520 0 480 0C440 0 400 0 360 0C320 0 280 0 240 0C200 0 160 0 120 0C80 0 40 0 20 0L0 0Z" fill="#9439d3"></path></svg>